<svg version="1.1" xmlns="http://www.w3.org/2000/svg" xmlns:xlink="http://www.w3.org/1999/xlink" width="24" height="24" viewBox="0,0,256,256"><g fill="#ffffff" fill-rule="nonzero" stroke="none" stroke-width="1" stroke-linecap="butt" stroke-linejoin="miter" stroke-miterlimit="10" stroke-dasharray="" stroke-dashoffset="0" font-family="none" font-weight="none" font-size="none" text-anchor="none" style="mix-blend-mode: normal"><g transform="translate(-10.66667,256) scale(0.26667,0.26667)"><path d="M160,-120v-80h640v80zM320,-280c-44,0 -81.66667,-15.66667 -113,-47c-31.33333,-31.33333 -47,-69 -47,-113v-400h640c22,0 40.83333,7.83333 56.5,23.5c15.66667,15.66667 23.5,34.5 23.5,56.5v120c0,22 -7.83333,40.83333 -23.5,56.5c-15.66667,15.66667 -34.5,23.5 -56.5,23.5h-80v120c0,44 -15.66667,81.66667 -47,113c-31.33333,31.33333 -69,47 -113,47zM320,-360h240c22,0 40.83333,-7.83333 56.5,-23.5c15.66667,-15.66667 23.5,-34.5 23.5,-56.5v-320h-400v320c0,22 7.83333,40.83333 23.5,56.5c15.66667,15.66667 34.5,23.5 56.5,23.5zM720,-640h80v-120h-80zM320,-360h-80h400z"></path></g></g></svg>