<svg xmlns="http://www.w3.org/2000/svg" version="1.1" xmlns:xlink="http://www.w3.org/1999/xlink" xmlns:svgjs="http://svgjs.dev/svgjs" width="1500" height="1500" viewBox="0 0 1500 1500"><rect width="1500" height="1500" fill="#7c4e29"></rect><g transform="matrix(0.6666666666666666,0,0,0.6666666666666666,249.39393939393943,635.6867590056048)"><svg viewBox="0 0 396 91" data-background-color="#7c4e29" preserveAspectRatio="xMidYMid meet" height="344" width="1500" xmlns="http://www.w3.org/2000/svg" xmlns:xlink="http://www.w3.org/1999/xlink"><g id="tight-bounds" transform="matrix(1,0,0,1,0.2400000000000091,-0.14024012867747615)"><svg viewBox="0 0 395.52 91.28048025735498" height="91.28048025735498" width="395.52"><g><svg viewBox="0 0 538.9711060460933 124.38698777489176" height="91.28048025735498" width="395.52"><g transform="matrix(1,0,0,1,143.45110604609332,17.190965748917748)"><svg viewBox="0 0 395.5199999999999 90.00505627705627" height="90.00505627705627" width="395.5199999999999"><g id="textblocktransform"><svg viewBox="0 0 395.5199999999999 90.00505627705627" height="90.00505627705627" width="395.5199999999999" id="textblock"><g><svg viewBox="0 0 395.5199999999999 90.00505627705627" height="90.00505627705627" width="395.5199999999999"><g transform="matrix(1,0,0,1,0,0)"><svg width="395.5199999999999" viewBox="2.34 -38.01 169.17 38.5" height="90.00505627705627" data-palette-color="#ffffff"><g class="wordmark-text-0" data-fill-palette-color="primary" id="text-0"><path d="M12.4-3.2L12.4-3.2Q14.55-3.2 15.84-4.53 17.14-5.86 17.26-8.33L17.26-8.33 21.34-8.33Q21.19-4.52 18.64-2.01 16.09 0.49 12.4 0.49L12.4 0.49Q7.5 0.49 4.92-2.6 2.34-5.69 2.34-11.79L2.34-11.79 2.34-14.7Q2.34-20.68 4.91-23.79 7.47-26.9 12.38-26.9L12.38-26.9Q16.43-26.9 18.81-24.34 21.19-21.78 21.34-17.33L21.34-17.33 17.26-17.33Q17.11-20.26 15.86-21.73 14.6-23.19 12.38-23.19L12.38-23.19Q9.5-23.19 8.11-21.3 6.71-19.41 6.67-15.09L6.67-15.09 6.67-11.72Q6.67-7.06 8.04-5.13 9.42-3.2 12.4-3.2ZM44.41 0L39.91 0Q39.52-0.85 39.35-2.88L39.35-2.88Q37.06 0.49 33.49 0.49L33.49 0.49Q29.9 0.49 27.89-1.53 25.88-3.54 25.88-7.2L25.88-7.2Q25.88-11.23 28.61-13.6 31.35-15.97 36.11-16.02L36.11-16.02 39.28-16.02 39.28-18.82Q39.28-21.19 38.23-22.19 37.18-23.19 35.03-23.19L35.03-23.19Q33.08-23.19 31.86-22.03 30.64-20.87 30.64-19.09L30.64-19.09 26.32-19.09Q26.32-21.12 27.51-22.96 28.71-24.8 30.73-25.85 32.76-26.9 35.25-26.9L35.25-26.9Q39.3-26.9 41.42-24.89 43.53-22.88 43.58-19.02L43.58-19.02 43.58-5.69Q43.6-2.64 44.41-0.39L44.41-0.39 44.41 0ZM34.15-3.44L34.15-3.44Q35.74-3.44 37.18-4.32 38.62-5.2 39.28-6.52L39.28-6.52 39.28-12.82 36.84-12.82Q33.76-12.77 31.98-11.44 30.2-10.11 30.2-7.71L30.2-7.71Q30.2-5.47 31.1-4.46 32-3.44 34.15-3.44ZM56.49 0L52.17 0 52.17-22.92 48.73-22.92 48.73-26.42 52.17-26.42 52.17-29.47Q52.24-33.5 54.21-35.75 56.17-38.01 59.76-38.01L59.76-38.01Q61.05-38.01 62.37-37.6L62.37-37.6 62.15-33.94Q61.23-34.16 60.18-34.16L60.18-34.16Q56.49-34.16 56.49-28.91L56.49-28.91 56.49-26.42 61.01-26.42 61.01-22.92 56.49-22.92 56.49 0ZM74.09-16.94L74.09-13.26 64.01-13.26 64.01-16.94 74.09-16.94ZM84.71 0L80.39 0 80.39-22.92 76.94-22.92 76.94-26.42 80.39-26.42 80.39-29.47Q80.46-33.5 82.42-35.75 84.39-38.01 87.98-38.01L87.98-38.01Q89.27-38.01 90.59-37.6L90.59-37.6 90.37-33.94Q89.44-34.16 88.39-34.16L88.39-34.16Q84.71-34.16 84.71-28.91L84.71-28.91 84.71-26.42 89.22-26.42 89.22-22.92 84.71-22.92 84.71 0ZM98.96-26.42L98.96 0 94.64 0 94.64-26.42 98.96-26.42ZM99.3-33.42L99.3-33.42Q99.3-32.32 98.69-31.59 98.08-30.86 96.84-30.86L96.84-30.86Q95.62-30.86 95.01-31.59 94.4-32.32 94.4-33.42 94.4-34.52 95.01-35.28 95.62-36.04 96.84-36.04 98.06-36.04 98.68-35.27 99.3-34.5 99.3-33.42ZM115.19 0.49L115.19 0.49Q110.26 0.49 107.63-2.45 104.99-5.4 104.94-11.08L104.94-11.08 104.94-14.28Q104.94-20.19 107.52-23.55 110.09-26.9 114.71-26.9L114.71-26.9Q119.35-26.9 121.64-23.95 123.94-21 123.98-14.75L123.98-14.75 123.98-11.91 109.24-11.91 109.24-11.3Q109.24-7.06 110.84-5.13 112.44-3.2 115.44-3.2L115.44-3.2Q117.34-3.2 118.8-3.92 120.25-4.64 121.52-6.2L121.52-6.2 123.76-3.47Q120.96 0.49 115.19 0.49ZM114.71-23.19L114.71-23.19Q112.02-23.19 110.73-21.35 109.43-19.51 109.26-15.63L109.26-15.63 119.66-15.63 119.66-16.21Q119.49-19.97 118.31-21.58 117.12-23.19 114.71-23.19ZM129.16-26.42L133.23-26.42 133.36-23.56Q135.87-26.9 139.78-26.9L139.78-26.9Q146.78-26.9 146.88-17.55L146.88-17.55 146.88 0 142.59 0 142.59-17.36Q142.59-20.46 141.55-21.77 140.51-23.07 138.43-23.07L138.43-23.07Q136.82-23.07 135.54-22 134.26-20.92 133.48-19.19L133.48-19.19 133.48 0 129.16 0 129.16-26.42ZM152.45-11.69L152.45-14.4Q152.45-20.51 154.73-23.71 157.01-26.9 161.28-26.9L161.28-26.9Q165.07-26.9 167.19-23.83L167.19-23.83 167.19-37.5 171.51-37.5 171.51 0 167.56 0 167.34-2.83Q165.21 0.49 161.26 0.49L161.26 0.49Q157.16 0.49 154.83-2.7 152.49-5.88 152.45-11.69L152.45-11.69ZM156.77-14.58L156.77-11.94Q156.77-7.5 158.09-5.41 159.4-3.32 162.38-3.32L162.38-3.32Q165.61-3.32 167.19-6.57L167.19-6.57 167.19-19.9Q165.53-23.07 162.41-23.07L162.41-23.07Q159.43-23.07 158.11-20.98 156.79-18.9 156.77-14.58L156.77-14.58Z" fill="#ffffff" data-fill-palette-color="primary"></path></g></svg></g></svg></g></svg></g></svg></g><g><svg viewBox="0 0 122.20307238043098 124.38698777489176" height="124.38698777489176" width="122.20307238043098"><g><svg version="1.1" xmlns="http://www.w3.org/2000/svg" xmlns:xlink="http://www.w3.org/1999/xlink" x="0" y="0" viewBox="0 0 98.24523979333988 100.00099999999999" enable-background="new 0 0 98.246 100.001" xml:space="preserve" width="122.20307238043098" height="124.38698777489176" class="icon-icon-0" data-fill-palette-color="accent" id="icon-0"><g fill="#ffffff" data-fill-palette-color="accent"><path fill="#ffffff" d="M89.161 22.676c-2.339-1.332-4.988-2.008-7.878-2.008-2.835 0-5.562 0.338-6.902 0.65-0.271 0.062-0.545 0.095-0.811 0.095-1.284 0-2.274-0.741-2.699-1.556v-6.728c0-2.837-1.976-6.858-11.375-9.895C53.031 1.147 44.488 0 35.435 0c-9.051 0-17.597 1.149-24.06 3.235C1.973 6.271 0 10.291 0 13.129v71.249c0 2.188 1.146 4.336 3.412 6.377 1.877 1.7 4.557 3.317 7.75 4.683 6.884 2.943 15.504 4.563 24.273 4.563s17.389-1.62 24.274-4.563c3.193-1.365 5.872-2.982 7.751-4.683 2.265-2.041 3.412-4.189 3.412-6.377V77.01c1.452-2.113 3.055-2.453 5.556-2.98 1.405-0.292 2.993-0.623 4.703-1.347 4.75-1.997 8.55-4.805 11.293-8.353 2.907-3.757 4.659-8.379 5.202-13.729l0.071-0.689c0.669-6.499 1.501-14.588-2.711-21.451C93.445 25.949 91.485 24.002 89.161 22.676zM14.901 15.015c3.549-2.517 11.408-4.267 20.534-4.267 9.127 0 16.984 1.75 20.533 4.267 1.271-0.68 1.916-1.351 1.916-1.886 0-0.502-0.667-1.177-1.785-1.807-0.602-0.338-0.814-1.1-0.479-1.7 0.339-0.6 1.1-0.812 1.698-0.475 2.03 1.144 3.059 2.481 3.059 3.982 0 5.127-12.549 7.809-24.945 7.809-12.396 0-24.945-2.683-24.945-7.809 0-1.501 1.032-2.844 3.068-3.987 0.602-0.339 1.362-0.125 1.698 0.477 0.338 0.603 0.124 1.361-0.477 1.7-1.125 0.631-1.795 1.307-1.795 1.811C12.985 13.664 13.633 14.333 14.901 15.015zM70.871 34.645c1.354-1.577 2.94-2.75 4.706-3.273 0.919-0.272 4.021-0.719 5.703-0.719 2.373 0 3.875 0.877 5.197 3.029 2.465 4.016 1.892 9.473 1.338 14.744-0.041 0.393-0.081 0.782-0.121 1.166-0.716 7.018-3.979 11.411-10.277 13.824-0.835 0.323-1.754 0.482-2.727 0.482-1.749 0-3.139-0.509-3.819-0.891V34.645L70.871 34.645z" data-fill-palette-color="accent"></path></g></svg></g></svg></g></svg></g><defs></defs></svg><rect width="395.52" height="91.28048025735498" fill="none" stroke="none" visibility="hidden"></rect></g></svg></g></svg>