<svg version="1.1" xmlns="http://www.w3.org/2000/svg" xmlns:xlink="http://www.w3.org/1999/xlink" width="24" height="24" viewBox="0,0,256,256"><g fill="#ffffff" fill-rule="nonzero" stroke="none" stroke-width="1" stroke-linecap="butt" stroke-linejoin="miter" stroke-miterlimit="10" stroke-dasharray="" stroke-dashoffset="0" font-family="none" font-weight="none" font-size="none" text-anchor="none" style="mix-blend-mode: normal"><g transform="translate(0,256) scale(0.26667,0.26667)"><path d="M480,-480c-44,0 -81.66667,-15.66667 -113,-47c-31.33333,-31.33333 -47,-69 -47,-113c0,-44 15.66667,-81.66667 47,-113c31.33333,-31.33333 69,-47 113,-47c44,0 81.66667,15.66667 113,47c31.33333,31.33333 47,69 47,113c0,44 -15.66667,81.66667 -47,113c-31.33333,31.33333 -69,47 -113,47zM160,-160v-112c0,-22.66667 5.83333,-43.5 17.5,-62.5c11.66667,-19 27.16667,-33.5 46.5,-43.5c41.33333,-20.66667 83.33333,-36.16667 126,-46.5c42.66667,-10.33333 86,-15.5 130,-15.5c44,0 87.33333,5.16667 130,15.5c42.66667,10.33333 84.66667,25.83333 126,46.5c19.33333,10 34.83333,24.5 46.5,43.5c11.66667,19 17.5,39.83333 17.5,62.5v112zM240,-240h480v-32c0,-7.33333 -1.83333,-14 -5.5,-20c-3.66667,-6 -8.5,-10.66667 -14.5,-14c-36,-18 -72.33333,-31.5 -109,-40.5c-36.66667,-9 -73.66667,-13.5 -111,-13.5c-37.33333,0 -74.33333,4.5 -111,13.5c-36.66667,9 -73,22.5 -109,40.5c-6,3.33333 -10.83333,8 -14.5,14c-3.66667,6 -5.5,12.66667 -5.5,20zM480,-560c22,0 40.83333,-7.83333 56.5,-23.5c15.66667,-15.66667 23.5,-34.5 23.5,-56.5c0,-22 -7.83333,-40.83333 -23.5,-56.5c-15.66667,-15.66667 -34.5,-23.5 -56.5,-23.5c-22,0 -40.83333,7.83333 -56.5,23.5c-15.66667,15.66667 -23.5,34.5 -23.5,56.5c0,22 7.83333,40.83333 23.5,56.5c15.66667,15.66667 34.5,23.5 56.5,23.5zM480,-640zM480,-240z"></path></g></g></svg>