<svg version="1.1" xmlns="http://www.w3.org/2000/svg" xmlns:xlink="http://www.w3.org/1999/xlink" width="24" height="24" viewBox="0,0,256,256"><g fill="#ffffff" fill-rule="nonzero" stroke="none" stroke-width="1" stroke-linecap="butt" stroke-linejoin="miter" stroke-miterlimit="10" stroke-dasharray="" stroke-dashoffset="0" font-family="none" font-weight="none" font-size="none" text-anchor="none" style="mix-blend-mode: normal"><g transform="translate(0,256) scale(0.26667,0.26667)"><path d="M370,-80l-16,-128c-8.66667,-3.33333 -16.83333,-7.33333 -24.5,-12c-7.66667,-4.66667 -15.16667,-9.66667 -22.5,-15l-119,50l-110,-190l103,-78c-0.66667,-4.66667 -1,-9.16667 -1,-13.5v-27c0,-4.33333 0.33333,-8.83333 1,-13.5l-103,-78l110,-190l119,50c7.33333,-5.33333 15,-10.33333 23,-15c8,-4.66667 16,-8.66667 24,-12l16,-128h220l16,128c8.66667,3.33333 16.83333,7.33333 24.5,12c7.66667,4.66667 15.16667,9.66667 22.5,15l119,-50l110,190l-103,78c0.66667,4.66667 1,9.16667 1,13.5v27c0,4.33333 -0.66667,8.83333 -2,13.5l103,78l-110,190l-118,-50c-7.33333,5.33333 -15,10.33333 -23,15c-8,4.66667 -16,8.66667 -24,12l-16,128zM440,-160h79l14,-106c20.66667,-5.33333 39.83333,-13.16667 57.5,-23.5c17.66667,-10.33333 33.83333,-22.83333 48.5,-37.5l99,41l39,-68l-86,-65c3.33333,-9.33333 5.66667,-19.16667 7,-29.5c1.33333,-10.33333 2,-20.83333 2,-31.5c0,-10.66667 -0.66667,-21.16667 -2,-31.5c-1.33333,-10.33333 -3.66667,-20.16667 -7,-29.5l86,-65l-39,-68l-99,42c-14.66667,-15.33333 -30.83333,-28.16667 -48.5,-38.5c-17.66667,-10.33333 -36.83333,-18.16667 -57.5,-23.5l-13,-106h-79l-14,106c-20.66667,5.33333 -39.83333,13.16667 -57.5,23.5c-17.66667,10.33333 -33.83333,22.83333 -48.5,37.5l-99,-41l-39,68l86,64c-3.33333,10 -5.66667,20 -7,30c-1.33333,10 -2,20.66667 -2,32c0,10.66667 0.66667,21 2,31c1.33333,10 3.66667,20 7,30l-86,65l39,68l99,-42c14.66667,15.33333 30.83333,28.16667 48.5,38.5c17.66667,10.33333 36.83333,18.16667 57.5,23.5zM482,-340c38.66667,0 71.66667,-13.66667 99,-41c27.33333,-27.33333 41,-60.33333 41,-99c0,-38.66667 -13.66667,-71.66667 -41,-99c-27.33333,-27.33333 -60.33333,-41 -99,-41c-39.33333,0 -72.5,13.66667 -99.5,41c-27,27.33333 -40.5,60.33333 -40.5,99c0,38.66667 13.5,71.66667 40.5,99c27,27.33333 60.16667,41 99.5,41zM480,-480z"></path></g></g></svg>