<svg version="1.1" xmlns="http://www.w3.org/2000/svg" xmlns:xlink="http://www.w3.org/1999/xlink" width="24" height="24" viewBox="0,0,256,256"><g fill="#ffffff" fill-rule="nonzero" stroke="none" stroke-width="1" stroke-linecap="butt" stroke-linejoin="miter" stroke-miterlimit="10" stroke-dasharray="" stroke-dashoffset="0" font-family="none" font-weight="none" font-size="none" text-anchor="none" style="mix-blend-mode: normal"><g transform="translate(0,256) scale(0.26667,0.26667)"><path d="M160,-200c-22,0 -40.83333,-7.83333 -56.5,-23.5c-15.66667,-15.66667 -23.5,-34.5 -23.5,-56.5v-400c0,-22 7.83333,-40.83333 23.5,-56.5c15.66667,-15.66667 34.5,-23.5 56.5,-23.5h640c22,0 40.83333,7.83333 56.5,23.5c15.66667,15.66667 23.5,34.5 23.5,56.5v400c0,22 -7.83333,40.83333 -23.5,56.5c-15.66667,15.66667 -34.5,23.5 -56.5,23.5zM160,-280h640v-400h-640zM320,-320h320v-80h-320zM200,-440h80v-80h-80zM320,-440h80v-80h-80zM440,-440h80v-80h-80zM560,-440h80v-80h-80zM680,-440h80v-80h-80zM200,-560h80v-80h-80zM320,-560h80v-80h-80zM440,-560h80v-80h-80zM560,-560h80v-80h-80zM680,-560h80v-80h-80zM160,-280v-400z"></path></g></g></svg>