<svg version="1.1" xmlns="http://www.w3.org/2000/svg" xmlns:xlink="http://www.w3.org/1999/xlink" width="24" height="24" viewBox="0,0,256,256"><g fill="#ffffff" fill-rule="nonzero" stroke="none" stroke-width="1" stroke-linecap="butt" stroke-linejoin="miter" stroke-miterlimit="10" stroke-dasharray="" stroke-dashoffset="0" font-family="none" font-weight="none" font-size="none" text-anchor="none" style="mix-blend-mode: normal"><g transform="translate(0,256) scale(0.26667,0.26667)"><path d="M440,-200h80v-167l64,64l56,-57l-160,-160l-160,160l57,56l63,-63zM240,-80c-22,0 -40.83333,-7.83333 -56.5,-23.5c-15.66667,-15.66667 -23.5,-34.5 -23.5,-56.5v-640c0,-22 7.83333,-40.83333 23.5,-56.5c15.66667,-15.66667 34.5,-23.5 56.5,-23.5h320l240,240v480c0,22 -7.83333,40.83333 -23.5,56.5c-15.66667,15.66667 -34.5,23.5 -56.5,23.5zM520,-600v-200h-280v640h480v-440zM240,-800v200v-200v640z"></path></g></g></svg>