<svg version="1.1" xmlns="http://www.w3.org/2000/svg" xmlns:xlink="http://www.w3.org/1999/xlink" width="24" height="24" viewBox="0,0,256,256"><g fill="#ffffff" fill-rule="nonzero" stroke="none" stroke-width="1" stroke-linecap="butt" stroke-linejoin="miter" stroke-miterlimit="10" stroke-dasharray="" stroke-dashoffset="0" font-family="none" font-weight="none" font-size="none" text-anchor="none" style="mix-blend-mode: normal"><g transform="translate(0,256) scale(0.26667,0.26667)"><path d="M491,-200c8,-0.66667 14.83333,-3.83333 20.5,-9.5c5.66667,-5.66667 8.5,-12.5 8.5,-20.5c0,-9.33333 -3,-16.83333 -9,-22.5c-6,-5.66667 -13.66667,-8.16667 -23,-7.5c-27.33333,2 -56.33333,-5.5 -87,-22.5c-30.66667,-17 -50,-47.83333 -58,-92.5c-1.33333,-7.33333 -4.83333,-13.33333 -10.5,-18c-5.66667,-4.66667 -12.16667,-7 -19.5,-7c-9.33333,0 -17,3.5 -23,10.5c-6,7 -8,15.16667 -6,24.5c11.33333,60.66667 38,104 80,130c42,26 84.33333,37.66667 127,35zM480,-80c-91.33333,0 -167.5,-31.33333 -228.5,-94c-61,-62.66667 -91.5,-140.66667 -91.5,-234c0,-66.66667 26.5,-139.16667 79.5,-217.5c53,-78.33333 133.16667,-163.16667 240.5,-254.5c107.33333,91.33333 187.5,176.16667 240.5,254.5c53,78.33333 79.5,150.83333 79.5,217.5c0,93.33333 -30.5,171.33333 -91.5,234c-61,62.66667 -137.16667,94 -228.5,94zM480,-160c69.33333,0 126.66667,-23.5 172,-70.5c45.33333,-47 68,-106.16667 68,-177.5c0,-48.66667 -20.16667,-103.66667 -60.5,-165c-40.33333,-61.33333 -100.16667,-128.33333 -179.5,-201c-79.33333,72.66667 -139.16667,139.66667 -179.5,201c-40.33333,61.33333 -60.5,116.33333 -60.5,165c0,71.33333 22.66667,130.5 68,177.5c45.33333,47 102.66667,70.5 172,70.5zM480,-480z"></path></g></g></svg>